<svg width="241" height="82" viewBox="0 0 241 82" fill="none" xmlns="http://www.w3.org/2000/svg">
<path d="M44.9621 14.677C44.1017 14.195 42.9316 14.1433 41.4516 14.522C40.0061 14.8664 38.3541 15.5378 36.4955 16.5362C34.6715 17.5346 32.7097 18.7914 30.6102 20.3063C28.5107 21.7869 26.3941 23.4395 24.2603 25.2643C22.1264 27.0547 20.0441 28.9483 18.0136 30.9453C15.983 32.9078 14.1072 34.8704 12.3864 36.8329C10.6656 38.761 9.16842 40.6202 7.89494 42.4106C6.65593 44.1666 5.74383 45.7504 5.15879 47.162C4.88349 47.8162 4.45319 48.1605 3.86814 48.1949C3.31743 48.1949 2.81847 48.0055 2.371 47.6268C1.92354 47.2481 1.66545 46.7144 1.59662 46.0258C1.49337 45.3372 1.78591 44.5969 2.47425 43.8051C2.68075 43.5985 3.21418 42.9787 4.07465 41.9458C4.96945 40.9129 6.10521 39.6218 7.48194 38.0724C8.85866 36.523 10.4591 34.8016 12.2831 32.9078C14.1072 30.9798 16.0518 29.0344 18.1168 27.0719C20.1818 25.0749 22.3329 23.1297 24.57 21.2359C26.8415 19.3422 29.0959 17.6379 31.333 16.123C33.57 14.6081 35.7728 13.3686 37.941 12.4045C40.1093 11.4405 42.1572 10.8897 44.0845 10.7519C45.2547 10.6831 46.2356 10.9068 47.0272 11.4233C47.8532 11.9053 48.5071 12.525 48.9889 13.2825C49.4707 14.04 49.8149 14.8491 50.0214 15.7099C50.2624 16.5362 50.3657 17.2592 50.3312 17.879C50.1935 20.599 49.8494 23.3706 49.2987 26.1939C48.748 29.0172 48.0252 31.8578 47.1304 34.7154C49.1954 32.7874 51.2605 30.997 53.3255 29.3443C55.3905 27.6916 57.4384 26.2627 59.4689 25.0577C61.4995 23.8527 63.4786 22.8886 65.4059 22.1656C67.3677 21.4425 69.2433 21.0294 71.0331 20.9261C73.0293 20.8228 74.6469 21.1155 75.8859 21.804C77.1249 22.4926 78.037 23.4739 78.622 24.7478C79.2416 26.0218 79.5685 27.5539 79.6029 29.3443C79.6374 31.1347 79.4481 33.0628 79.0351 35.1286C81.2721 33.1316 83.4748 31.2724 85.6431 29.5509C87.8114 27.8294 89.8248 26.3489 91.6833 25.1094C93.5763 23.8354 95.2799 22.8541 96.7943 22.1656C98.3086 21.4425 99.5304 21.081 100.46 21.081C101.32 21.081 102.18 21.2531 103.041 21.5975C103.936 21.9073 104.693 22.4754 105.312 23.3018C105.932 24.1281 106.328 25.2471 106.5 26.6587C106.706 28.036 106.552 29.8091 106.035 31.9782C105.553 33.9752 104.745 36.127 103.609 38.4339C102.508 40.7063 101.234 42.9959 99.7885 45.3028C98.3775 47.6097 96.8975 49.8476 95.3487 52.0167C93.8344 54.1858 92.4233 56.1483 91.1154 57.9043C89.8076 59.6602 88.689 61.1408 87.7598 62.3458C86.865 63.5165 86.3487 64.2912 86.211 64.6699C86.0045 65.2208 85.5743 65.565 84.9204 65.7028C84.3009 65.8405 83.6813 65.8232 83.0618 65.6511C82.4768 65.5134 82.0293 65.2208 81.7196 64.7732C81.4098 64.36 81.4786 63.8607 81.9261 63.2754C82.1326 63.0344 82.3907 62.7935 82.7005 62.5524C83.0102 62.3113 83.3371 62.0704 83.6814 61.8294C84.0256 61.5883 84.3525 61.3474 84.6622 61.1063C85.0065 60.8309 85.2817 60.5382 85.4883 60.2283C87.2091 57.9215 88.9988 55.4253 90.8573 52.7397C92.7503 50.0542 94.5227 47.3858 96.1748 44.7347C97.8612 42.0836 99.3411 39.5356 100.615 37.0911C101.888 34.6121 102.783 32.443 103.299 30.5838C103.815 28.6901 103.85 27.1752 103.402 26.039C102.989 24.9028 101.905 24.3347 100.15 24.3347C99.1519 24.3347 97.8439 24.7823 96.2264 25.6775C94.6088 26.5383 92.7846 27.7261 90.7541 29.241C88.7578 30.7216 86.624 32.4602 84.3525 34.4572C82.081 36.4542 79.8094 38.5717 77.5379 40.8096C76.7807 43.1165 75.8687 45.4577 74.8018 47.8334C73.7692 50.2091 72.6506 52.5332 71.4461 54.8056C70.2415 57.078 68.9852 59.2471 67.6774 61.3129C66.3696 63.3787 65.079 65.238 63.8055 66.8906C62.5665 68.5778 61.3619 70.0065 60.1917 71.1772C59.0215 72.3479 57.989 73.1569 57.0942 73.6045C56.6467 73.8111 56.0961 73.8628 55.4421 73.7595C54.7882 73.6562 54.2031 73.3463 53.6869 72.8299C53.1706 72.3479 52.7921 71.6765 52.5511 70.8157C52.3101 69.9549 52.3962 68.8703 52.8092 67.562C53.3943 65.7028 54.4096 63.6025 55.8551 61.2613C57.3351 58.8856 59.1076 56.4066 61.1726 53.8243C63.2376 51.242 65.5091 48.6253 67.9872 45.9742C70.4997 43.2886 73.0636 40.7063 75.6794 38.2273C76.3677 36.2648 76.8496 34.4227 77.1249 32.7013C77.4347 30.9798 77.4518 29.4821 77.1765 28.2081C76.9356 26.8998 76.3505 25.8496 75.4213 25.0577C74.5265 24.2659 73.2358 23.8354 71.5493 23.7666C69.7253 23.6978 67.7462 24.0936 65.6124 24.9544C63.4786 25.8152 61.2587 27.0374 58.9527 28.6213C56.6812 30.1706 54.358 31.9954 51.9832 34.0957C49.6429 36.196 47.3198 38.4511 45.0138 40.8613C43.8092 44.0978 42.4841 47.2481 41.0386 50.3124C39.5931 53.3767 38.1304 56.2861 36.6504 59.0405C35.1704 61.7605 33.7249 64.2912 32.3139 66.6324C30.9371 68.9736 29.681 71.0051 28.5452 72.7266C27.4094 74.448 26.463 75.8081 25.7058 76.8066C24.9486 77.8395 24.4668 78.4421 24.2603 78.6142C23.2278 79.406 22.2469 79.7504 21.3176 79.6471C20.4228 79.5783 19.7 79.1994 19.1493 78.5109C18.5986 77.8223 18.2717 76.8927 18.1684 75.722C18.0996 74.5513 18.4094 73.2602 19.0977 71.8486C20.2335 69.5417 21.6274 67.0284 23.2794 64.3083C24.9659 61.6228 26.8244 58.8684 28.8549 56.0451C30.8855 53.1874 33.0711 50.3296 35.4114 47.4719C37.7517 44.6142 40.161 41.8597 42.639 39.2086C43.8435 36.2132 44.8589 33.3382 45.6849 30.5838C46.5454 27.7949 47.1304 25.2988 47.4402 23.0952C47.7499 20.8572 47.7155 18.998 47.3369 17.5175C46.9927 16.0369 46.2012 15.0901 44.9621 14.677ZM22.6599 75.9286C22.9696 75.8253 23.4343 75.3777 24.0538 74.5858C24.6733 73.8283 25.4132 72.7782 26.2737 71.4354C27.1341 70.1271 28.0806 68.5949 29.1131 66.839C30.1456 65.083 31.2126 63.1721 32.3139 61.1063C33.4496 59.006 34.5854 56.8197 35.7212 54.5473C36.8569 52.2405 37.9755 49.8992 39.0768 47.5235C37.0118 49.968 35.05 52.3954 33.1915 54.8056C31.3674 57.2157 29.7154 59.5225 28.2354 61.7261C26.7555 63.9297 25.4821 65.961 24.4151 67.8202C23.3482 69.6795 22.5395 71.246 21.9887 72.52C21.4725 73.8283 21.2488 74.7924 21.3176 75.4121C21.3864 76.0319 21.8339 76.204 22.6599 75.9286ZM56.2165 68.2334C56.1821 68.44 56.1821 68.6637 56.2165 68.9048C56.251 69.1802 56.3198 69.4213 56.423 69.6278C56.5263 69.8344 56.664 69.9722 56.836 70.041C57.0081 70.1443 57.2146 70.1443 57.4555 70.041C57.6276 69.9722 58.2299 69.2318 59.2624 67.8202C60.2949 66.4086 61.534 64.5837 62.9795 62.3458C64.4595 60.1079 66.0254 57.5772 67.6774 54.7539C69.3639 51.9306 70.9127 49.0557 72.3237 46.1291C70.2587 48.2982 68.2969 50.4673 66.4384 52.6364C64.5799 54.8056 62.9279 56.8714 61.4823 58.8339C60.0368 60.762 58.8494 62.5352 57.9202 64.1534C56.9909 65.7716 56.423 67.1317 56.2165 68.2334ZM131.026 5.22581C131.129 4.60607 131.404 4.17568 131.852 3.93467C132.298 3.65922 132.763 3.55593 133.246 3.6248C133.727 3.65922 134.14 3.83138 134.485 4.14126C134.828 4.45113 134.931 4.86429 134.795 5.38075L132.833 12.1463C136.653 11.5266 140.473 10.9585 144.294 10.442C148.114 9.92556 151.658 9.49522 154.929 9.15088C158.233 8.77218 161.089 8.47948 163.498 8.2729C165.942 8.06632 167.68 7.94586 168.713 7.91138C169.607 7.91138 170.295 8.04915 170.778 8.32455C171.259 8.5656 171.586 8.89265 171.759 9.30581C171.93 9.6845 171.965 10.0977 171.862 10.5453C171.759 10.9929 171.569 11.3888 171.294 11.7332C171.018 12.043 170.674 12.2841 170.261 12.4562C169.848 12.594 169.417 12.5595 168.971 12.3529C168.385 12.1118 167.404 11.9569 166.028 11.8881C164.686 11.8193 163.067 11.8193 161.175 11.8881C159.282 11.9569 157.165 12.0947 154.825 12.3013C152.484 12.5078 150.041 12.7661 147.494 13.0759C144.947 13.3858 142.332 13.7473 139.647 14.1605C136.963 14.5737 134.347 15.0213 131.8 15.5033C130.113 20.8056 128.323 26.1078 126.431 31.4101C124.538 36.678 122.696 41.6359 120.907 46.284C121.389 48.7286 121.56 51.242 121.424 53.8243C121.285 56.4066 120.701 59.006 119.668 61.6228C119.565 61.8982 119.34 62.4146 118.997 63.1721C118.653 63.8952 118.223 64.7387 117.706 65.7028C117.19 66.6669 116.605 67.6998 115.951 68.8015C115.297 69.9032 114.608 70.9534 113.886 71.9519C113.163 72.9503 112.423 73.8456 111.666 74.6375C110.908 75.4293 110.169 75.9802 109.446 76.2901C109.136 76.4279 108.757 76.4622 108.31 76.3934C107.897 76.3589 107.536 76.2213 107.226 75.9802C106.951 75.7392 106.796 75.395 106.761 74.9473C106.727 74.4997 106.933 73.9316 107.381 73.243C107.518 73.0364 107.914 72.1756 108.568 70.6607C109.222 69.1459 110.048 67.166 111.046 64.7215C112.044 62.277 113.18 59.4537 114.453 56.2516C115.727 53.0496 117.035 49.641 118.378 46.0258C118.068 43.7534 117.551 41.6359 116.828 39.6734C116.14 37.6764 115.331 35.8688 114.402 34.2506C113.507 32.6324 112.56 31.1864 111.562 29.9124C110.564 28.6384 109.635 27.5712 108.775 26.7104C107.914 25.8152 107.174 25.1438 106.555 24.6962C105.935 24.2486 105.557 24.0076 105.419 23.9732C105.109 23.9387 104.886 23.8182 104.748 23.6116C104.61 23.4051 104.524 23.1468 104.49 22.837C104.455 22.5271 104.473 22.2 104.541 21.8557C104.645 21.477 104.782 21.1155 104.954 20.7711C105.333 20.0136 106.228 19.2734 107.639 18.5504C109.084 17.8273 110.908 17.1388 113.111 16.4845C115.314 15.796 117.792 15.1418 120.546 14.522C123.334 13.9023 126.258 13.317 129.322 12.7661C130.045 10.0805 130.613 7.56707 131.026 5.22581ZM119.823 42.1007C121.44 37.728 122.989 33.321 124.469 28.8795C125.983 24.438 127.291 20.203 128.393 16.1747C125.812 16.6911 123.385 17.2421 121.114 17.8273C118.842 18.3783 116.845 18.9635 115.125 19.5833C113.438 20.1686 112.079 20.754 111.046 21.3392C110.048 21.9245 109.515 22.4926 109.446 23.0435C109.411 23.1813 109.773 23.7666 110.53 24.7995C111.321 25.7979 112.268 27.1407 113.369 28.8278C114.471 30.515 115.606 32.4947 116.777 34.7671C117.981 37.0395 118.997 39.484 119.823 42.1007ZM114.144 66.9939C115.52 64.3428 116.553 61.8122 117.241 59.402C117.93 56.9918 118.36 54.6506 118.533 52.3782C117.637 54.6851 116.811 56.8026 116.054 58.7306C115.297 60.6587 114.643 62.3286 114.092 63.7402C113.541 65.1863 113.111 66.3225 112.801 67.1489C112.492 67.9752 112.337 68.4572 112.337 68.5949C112.337 69.2147 112.509 69.318 112.853 68.9048C113.232 68.5261 113.662 67.8891 114.144 66.9939ZM144.3 38.5888C145.711 38.4856 146.812 38.6233 147.604 39.002C148.43 39.3807 149.032 39.88 149.411 40.4997C149.789 41.085 150.013 41.7221 150.082 42.4106C150.151 43.0648 150.167 43.6501 150.134 44.1666C150.064 44.8551 149.806 45.3544 149.359 45.6643C148.946 45.9742 148.482 46.1291 147.966 46.1291C147.483 46.1291 147.036 46.0086 146.623 45.7676C146.21 45.4922 146.004 45.1134 146.004 44.6314C146.004 44.356 146.004 43.9945 146.004 43.5468C146.037 43.0648 146.004 42.6172 145.901 42.204C145.797 41.7909 145.573 41.481 145.229 41.2744C144.885 41.0678 144.334 41.0678 143.577 41.2744C141.478 41.8942 139.551 42.755 137.795 43.8567C136.074 44.9584 134.56 46.1636 133.252 47.4719C131.978 48.7802 130.929 50.1058 130.103 51.4486C129.311 52.7914 128.778 54.0309 128.503 55.1671C128.261 56.2688 128.296 57.1984 128.606 57.9559C128.949 58.679 129.62 59.075 130.619 59.1438C131.549 59.2126 132.546 59.0577 133.614 58.679C134.715 58.3003 135.782 57.801 136.814 57.1813C137.881 56.5615 138.861 55.8901 139.757 55.1671C140.652 54.444 141.374 53.7898 141.925 53.2045C142.235 52.4815 142.648 51.7068 143.164 50.8805C143.371 50.3985 143.611 49.8648 143.887 49.2795C144.197 48.6942 144.54 48.1949 144.92 47.7818C145.333 47.3341 145.797 47.0243 146.314 46.8521C146.83 46.6456 147.414 46.6972 148.069 47.0071C148.412 47.1792 148.637 47.3858 148.74 47.6268C148.877 47.8679 148.928 48.1088 148.895 48.3499C149.032 48.6942 148.963 48.9696 148.688 49.1762L148.172 49.641C147.14 50.9493 146.107 52.1372 145.075 53.2045C144.385 54.2375 143.939 55.1671 143.732 55.9934C143.526 56.8197 143.456 57.5256 143.526 58.1109C143.629 58.6962 143.801 59.1783 144.042 59.557C144.317 59.9013 144.592 60.0906 144.868 60.1251C145.762 60.2972 146.812 60.1251 148.017 59.6086C149.256 59.0577 150.547 58.3346 151.889 57.4395C153.231 56.5099 154.574 55.477 155.916 54.3407C157.258 53.2045 158.479 52.12 159.581 51.0871C160.682 50.0542 161.612 49.159 162.369 48.4015C163.16 47.644 163.66 47.1965 163.866 47.0587C164.486 46.6111 165.019 46.4561 165.467 46.5939C165.913 46.7317 165.965 47.1792 165.622 47.9367C165.449 48.281 164.916 48.9351 164.021 49.8992C163.125 50.8633 162.008 51.9651 160.665 53.2045C159.323 54.444 157.826 55.7007 156.174 56.9747C154.556 58.2486 152.922 59.3675 151.27 60.3316C149.651 61.2613 148.102 61.9326 146.623 62.3458C145.143 62.759 143.887 62.7073 142.855 62.1909C142.165 61.881 141.616 61.3129 141.203 60.4866C140.79 59.6258 140.635 58.5585 140.738 57.2845C139.086 58.5929 137.434 59.5914 135.782 60.28C134.13 60.9686 132.408 61.3129 130.619 61.3129C129.517 61.3129 128.64 61.1924 127.986 60.9514C127.332 60.7103 126.816 60.4005 126.438 60.0218C126.093 59.6086 125.852 59.161 125.715 58.679C125.612 58.197 125.542 57.7494 125.508 57.3362C125.474 56.0279 125.732 54.6678 126.283 53.2562C126.867 51.8101 127.642 50.4157 128.606 49.0729C129.569 47.6956 130.688 46.4045 131.962 45.1995C133.269 43.96 134.628 42.8754 136.04 41.9458C137.451 40.9817 138.861 40.207 140.273 39.6218C141.719 39.002 143.061 38.6577 144.3 38.5888ZM180.146 37.9691C180.904 37.797 181.455 37.9175 181.798 38.3306C182.178 38.7438 182.366 39.3807 182.366 40.2415C182.366 40.5169 182.246 41.1195 182.005 42.0491C181.765 42.9787 181.455 44.0805 181.076 45.3544C180.698 46.6284 180.284 47.9883 179.837 49.4344C179.39 50.846 178.959 52.1888 178.546 53.4628C178.133 54.7367 177.772 55.8556 177.462 56.8197C177.152 57.7838 176.964 58.4208 176.894 58.7306C176.757 59.2126 176.687 59.5914 176.687 59.8668C176.722 60.1079 176.809 60.28 176.946 60.3833C177.084 60.4521 177.239 60.4694 177.41 60.4349C177.617 60.4005 177.841 60.3488 178.081 60.28C178.529 60.1422 179.2 59.7291 180.095 59.0405C181.024 58.3519 182.057 57.5256 183.192 56.5615C184.363 55.5974 185.567 54.5645 186.806 53.4628C188.045 52.3266 189.199 51.2592 190.265 50.2607C191.332 49.2623 192.245 48.3843 193.001 47.6268C193.759 46.8693 194.24 46.3702 194.447 46.1291C194.756 45.7848 195.066 45.5955 195.376 45.561C195.721 45.5265 195.979 45.6126 196.15 45.8192C196.357 45.9913 196.427 46.2669 196.357 46.6456C196.323 47.0243 196.082 47.4202 195.634 47.8334C195.462 47.9712 194.981 48.4187 194.189 49.1762C193.397 49.9337 192.433 50.8633 191.298 51.9651C190.162 53.0324 188.923 54.1858 187.58 55.4253C186.238 56.6648 184.931 57.8355 183.657 58.9372C182.384 60.0389 181.197 61.003 180.095 61.8294C179.029 62.6557 178.203 63.1893 177.617 63.4304C176.791 63.7402 176.138 63.8952 175.655 63.8952C175.174 63.9297 174.795 63.8607 174.519 63.6886C174.279 63.5508 174.106 63.3615 174.003 63.1205C173.9 62.8451 173.831 62.5696 173.796 62.2942C173.625 61.3301 173.642 60.1595 173.848 58.7823C174.055 57.405 174.364 55.9589 174.777 54.444C175.225 52.9291 175.707 51.4314 176.223 49.9509C176.774 48.436 177.255 47.0759 177.668 45.8709C178.116 44.6314 178.461 43.6156 178.701 42.8238C178.977 41.9975 179.062 41.5155 178.959 41.3777C178.787 41.2056 178.288 41.4465 177.462 42.1007C176.671 42.7205 175.673 43.6501 174.468 44.8896C173.298 46.0946 171.99 47.5407 170.544 49.2278C169.133 50.915 167.739 52.7053 166.362 54.599C164.987 56.4927 163.696 58.4207 162.49 60.3833C161.286 62.3458 160.322 64.2222 159.599 66.0126C159.428 66.5979 159.273 67.1488 159.135 67.6653C159.032 68.2162 158.946 68.7327 158.877 69.2147C158.946 69.7311 158.843 70.1271 158.567 70.4025C158.257 70.7124 157.931 70.8845 157.586 70.919C157.208 70.9534 156.881 70.8329 156.605 70.5575C156.33 70.2821 156.262 69.8172 156.399 69.163C156.778 67.4071 157.449 64.9281 158.412 61.7261C159.341 58.524 160.873 54.5129 163.007 49.6926C165.175 44.8724 168.084 39.1914 171.731 32.6496C175.415 26.1078 180.146 18.5848 185.928 10.0805C186.135 9.77062 186.411 9.32299 186.754 8.73771C187.134 8.11796 187.529 7.46378 187.942 6.77518C188.39 6.08656 188.854 5.41517 189.336 4.761C189.852 4.0724 190.368 3.52151 190.885 3.10834C191.436 2.62631 192.02 2.35087 192.64 2.28201C193.259 2.21315 193.776 2.31644 194.189 2.59189C194.636 2.83291 194.911 3.22885 195.015 3.77974C195.118 4.33061 194.963 5.00201 194.55 5.79391C194.207 6.44809 193.827 7.0162 193.414 7.49822C193.001 7.9802 192.52 8.49666 191.969 9.04758C191.419 9.56404 190.781 10.201 190.059 10.9585C189.371 11.716 188.561 12.7144 187.632 13.9539C185.051 17.3625 182.624 20.754 180.353 24.1281C178.116 27.5022 176.051 30.8075 174.158 34.044C172.299 37.2461 170.596 40.3448 169.047 43.3402C167.498 46.3357 166.122 49.159 164.917 51.8101C166.053 50.4673 167.343 49.0384 168.789 47.5235C170.234 45.9742 171.663 44.5281 173.074 43.1853C174.519 41.8425 175.861 40.6891 177.1 39.7251C178.374 38.761 179.39 38.1757 180.146 37.9691ZM201.726 38.3823C202.345 38.4511 202.792 38.6577 203.068 39.002C203.343 39.3119 203.498 39.6906 203.533 40.1382C203.566 40.5514 203.515 40.9817 203.378 41.4294C203.275 41.8425 203.137 42.1696 202.965 42.4106C202.792 42.686 202.397 43.0992 201.778 43.6501C201.192 44.201 200.555 44.7691 199.867 45.3544C199.178 45.9397 198.542 46.5078 197.957 47.0587C197.406 47.5752 197.062 47.9539 196.925 48.1949C194.756 51.6035 193.276 54.2891 192.485 56.2516C191.727 58.2142 191.366 59.6774 191.401 60.6415C191.434 61.6056 191.692 62.2081 192.175 62.4491C192.657 62.6557 193.07 62.7245 193.414 62.6557C193.964 62.5524 194.738 62.2253 195.737 61.6744C196.735 61.0891 197.854 60.3661 199.093 59.5053C200.366 58.6102 201.708 57.6116 203.12 56.5099C204.565 55.4081 205.993 54.2719 207.405 53.1013C208.815 51.8962 210.158 50.7084 211.432 49.5377C212.739 48.367 213.891 47.2653 214.89 46.2324C215.097 46.0258 215.285 45.9397 215.458 45.9742C215.665 46.0086 215.836 46.1119 215.975 46.284C216.111 46.4562 216.181 46.68 216.181 46.9554C216.215 47.1965 216.146 47.4374 215.975 47.6785C215.63 48.1605 214.959 48.918 213.961 49.9509C212.962 50.9493 211.758 52.0855 210.347 53.3595C208.935 54.599 207.405 55.8901 205.753 57.2329C204.134 58.5757 202.517 59.8152 200.9 60.9514C199.281 62.0876 197.768 63.0344 196.357 63.7919C194.945 64.5837 193.757 65.0314 192.795 65.1347C191.762 65.2724 190.936 65.0486 190.317 64.4633C189.697 63.878 189.336 62.9656 189.233 61.7261C189.129 60.7964 189.214 59.7291 189.491 58.524C189.8 57.319 190.179 56.0967 190.626 54.8572C191.108 53.5832 191.641 52.3437 192.227 51.1387C192.811 49.8992 193.379 48.7802 193.93 47.7818C194.48 46.7489 194.945 45.888 195.324 45.1995C195.737 44.5109 195.995 44.0633 196.099 43.8567C196.27 43.5124 196.545 43.0132 196.925 42.359C197.303 41.7048 197.733 41.085 198.215 40.4997C198.697 39.88 199.23 39.3635 199.816 38.9504C200.435 38.5027 201.072 38.3134 201.726 38.3823ZM208.953 29.1377C209.228 28.9311 209.555 28.7074 209.934 28.4663C210.347 28.2253 210.76 28.036 211.173 27.8982C211.586 27.7605 211.965 27.7088 212.309 27.7433C212.687 27.7778 212.962 27.967 213.135 28.3114C213.272 28.6901 213.187 29.2238 212.877 29.9124C212.601 30.4977 212.154 31.1519 211.535 31.8749C210.949 32.5635 210.296 33.2349 209.573 33.8891C208.85 34.5089 208.109 35.0598 207.353 35.5418C206.595 36.0237 205.924 36.3164 205.34 36.4197C204.96 36.523 204.669 36.5402 204.462 36.4714C204.256 36.3681 204.101 36.2476 203.997 36.1099C203.894 35.9378 203.843 35.7655 203.843 35.5934C203.843 35.4213 203.843 35.2835 203.843 35.1802C203.911 34.8704 204.101 34.4572 204.41 33.9407C204.754 33.4243 205.167 32.8907 205.649 32.3397C206.131 31.7545 206.647 31.1864 207.198 30.6354C207.783 30.0502 208.368 29.5509 208.953 29.1377ZM214.976 44.2182C214.976 44.8035 215.044 45.2856 215.182 45.6643C215.319 46.043 215.647 46.2324 216.163 46.2324C216.713 46.2324 217.505 45.9913 218.538 45.5094C219.57 44.9929 220.998 44.1321 222.823 42.9271C223.717 42.3418 224.388 42.2212 224.836 42.5656C225.318 42.8754 225.592 43.4091 225.662 44.1666C225.731 44.9241 225.592 45.7848 225.249 46.7489C224.939 47.6785 224.44 48.4876 223.752 49.1762C222.203 50.7944 220.826 52.361 219.622 53.8759C218.416 55.3565 217.436 56.7164 216.679 57.9559C215.957 59.1954 215.492 60.2455 215.285 61.1063C215.112 61.9671 215.251 62.5524 215.698 62.8623C216.248 63.241 217.161 63.2238 218.435 62.8106C219.707 62.3975 221.256 61.5711 223.081 60.3316C224.939 59.0921 227.038 57.4395 229.379 55.3737C231.754 53.2734 234.317 50.7427 237.071 47.7818C237.311 47.5407 237.621 47.3686 238.001 47.2653C238.379 47.162 238.689 47.162 238.93 47.2653C239.205 47.3686 239.343 47.5924 239.343 47.9367C239.376 48.2466 239.153 48.6769 238.672 49.2278C237.776 50.2607 236.744 51.397 235.574 52.6364C234.438 53.8415 233.216 55.0638 231.909 56.3033C230.6 57.5083 229.224 58.679 227.779 59.8152C226.367 60.9514 224.956 61.9498 223.545 62.8106C222.134 63.6714 220.74 64.3428 219.364 64.8248C218.022 65.3068 216.748 65.4962 215.543 65.3929C214.408 65.2896 213.512 64.9453 212.859 64.36C212.205 63.7747 211.998 62.8451 212.239 61.5711C212.48 60.2628 213.289 58.5585 214.666 56.4582C216.042 54.3579 218.21 51.7585 221.171 48.6597C221.549 47.7646 221.739 47.1965 221.739 46.9554C221.772 46.68 221.635 46.5939 221.326 46.6972C221.049 46.8005 220.636 47.0243 220.087 47.3686C219.57 47.7129 218.951 48.0572 218.228 48.4015C217.539 48.7114 216.764 48.9696 215.905 49.1762C215.079 49.3483 214.218 49.3311 213.324 49.1245C212.05 48.8147 211.189 48.281 210.742 47.5235C210.329 46.7317 210.156 45.9053 210.226 45.0445C210.329 44.1494 210.604 43.3058 211.052 42.5139C211.533 41.7221 212.05 41.1367 212.601 40.758C213.289 40.3103 213.857 40.362 214.304 40.9129C214.786 41.4294 215.009 42.5311 214.976 44.2182Z" fill="#D8DFE2" stroke="#176D81" stroke-width="3"/>
</svg>
